<?xml version="1.0" encoding="UTF-8" standalone="no"?>
<svg
   xmlns:dc="http://purl.org/dc/elements/1.1/"
   xmlns:cc="http://creativecommons.org/ns#"
   xmlns:rdf="http://www.w3.org/1999/02/22-rdf-syntax-ns#"
   xmlns:svg="http://www.w3.org/2000/svg"
   xmlns="http://www.w3.org/2000/svg"
   xmlns:sodipodi="http://sodipodi.sourceforge.net/DTD/sodipodi-0.dtd"
   xmlns:inkscape="http://www.inkscape.org/namespaces/inkscape"
   version="1.1"
   id="svg10"
   xml:space="preserve"
   width="18630.002"
   height="2346.8413"
   viewBox="0 0 18630.001 2346.8414"
   sodipodi:docname="d_s_name.svg"
   inkscape:export-filename="/Users/david/Documents/GitHub/My-page/images/d_s_name_1.png"
   inkscape:export-xdpi="75"
   inkscape:export-ydpi="75"
   inkscape:version="1.0.2 (e86c8708, 2021-01-15)"><g
     id="g316"
     transform="matrix(0.5,0,0,0.5,4657.5004,586.71034)"
     inkscape:export-xdpi="75"
     inkscape:export-ydpi="75"><g
       id="g3664"
       transform="matrix(26.666666,0,0,-26.666666,16553.673,1826.7)"
       style="fill:#ffffff"
       inkscape:export-xdpi="75"
       inkscape:export-ydpi="75"><path
         d="M 0,0 -0.003,0.002 0.011,0.019 H 0.01 C 2.189,2.616 2.444,6.184 0.935,9.001 3.917,7.996 7.306,8.796 9.491,11.312 Z m -3.622,12.836 c -2.993,0.993 -6.407,0.164 -8.599,-2.344 l 1.575,1.876 7.932,9.454 C -4.89,19.221 -5.138,15.651 -3.622,12.836 M -21.024,0 v 0 l 0.013,0.017 h 10e-4 C -21.015,0.011 -21.02,0.006 -21.024,0 M -277.98,15.561 c 0.139,-0.949 0.444,-1.875 0.916,-2.731 -0.011,0.004 -0.022,0.006 -0.032,0.01 0.005,-0.01 0.009,-0.02 0.014,-0.029 -2.227,0.761 -4.693,0.507 -6.722,-0.699 -0.002,0.002 -0.005,0.004 -0.008,0.007 -0.729,-0.437 -1.402,-0.994 -1.984,-1.677 l -0.003,0.002 -0.017,-0.019 c 0.025,0.029 0.049,0.058 0.074,0.088 l 1.594,1.898 -10e-4,0.001 0.003,0.003 7.932,9.453 c -0.003,-0.003 -0.004,-0.005 -0.007,-0.008 l 0.024,0.028 c -1.531,-1.83 -2.104,-4.139 -1.783,-6.327 m -7.989,-5.319 -0.574,-0.684 -6.388,-7.612 -1.554,-1.853 0.002,-0.001 c -0.008,-0.009 -0.017,-0.017 -0.025,-0.027 l 1.577,1.881 6.388,7.612 0.577,0.688 c -10e-4,-0.001 -0.002,-0.003 -0.003,-0.004 m -19.201,2.18 c -0.011,0.009 -0.02,0.016 -0.03,0.024 0.513,0.707 0.974,1.456 1.368,2.244 1.081,2.164 1.692,4.604 1.692,7.187 0,1.387 -0.181,2.729 -0.51,4.013 3.246,-1.925 7.467,-1.341 10.06,1.525 z m -1.431,20.577 c -0.409,0.428 -0.84,0.835 -1.295,1.217 l 2.426,2.89 c 0.001,0 0.001,-0.001 0.002,-0.001 0.023,-0.019 0.047,-0.037 0.071,-0.056 -0.774,-1.248 -1.17,-2.649 -1.204,-4.05 m -19.59,-20.586 c -0.024,0.021 -0.048,0.038 -0.072,0.058 0.775,1.248 1.171,2.65 1.204,4.051 0.41,-0.427 0.841,-0.834 1.295,-1.215 z M 72.045,-1.862 c -1.511,1.267 -3.35,1.883 -5.178,1.882 H 42.079 l 23.133,27.568 v 10e-4 c 2.859,3.408 2.415,8.488 -0.993,11.348 -1.51,1.267 -3.349,1.882 -5.178,1.881 v 0.001 H 38.005 v -0.007 c -2.297,-10e-4 -4.578,-0.977 -6.171,-2.874 -0.02,-0.024 -0.036,-0.05 -0.056,-0.075 L 31.773,37.867 9.734,11.602 c 2.252,2.773 3.671,6.384 3.671,10.23 0,8.897 -7.213,16.11 -16.111,16.11 -4.954,0 -9.384,-2.237 -12.339,-5.756 -0.025,-0.03 -0.053,-0.059 -0.077,-0.089 l -0.023,-0.026 -6.175,-7.361 c 2.853,3.408 2.408,8.485 -0.998,11.343 -3.408,2.86 -8.489,2.415 -11.348,-0.993 -0.013,-0.014 -0.022,-0.03 -0.034,-0.044 l -7.816,-9.315 h -0.135 c 2.037,3.342 1.393,7.758 -1.698,10.352 -3.407,2.86 -8.488,2.415 -11.347,-0.993 l -0.005,0.004 -19.044,-22.696 c -0.02,0.016 -0.039,0.03 -0.058,0.046 1.933,2.656 3.077,5.924 3.077,9.461 0,8.897 -7.212,16.11 -16.11,16.11 -5.329,0 -10.051,-2.588 -12.984,-6.575 l -15.979,-19.043 c -0.012,0.009 -0.023,0.019 -0.034,0.028 1.939,2.66 3.087,5.935 3.087,9.48 0,8.897 -7.213,16.11 -16.11,16.11 -4.976,0 -9.423,-2.256 -12.378,-5.8 l -0.005,0.003 -0.006,-0.007 -0.001,0.001 -6.239,-7.436 c 2.822,3.407 2.371,8.459 -1.025,11.307 -3.407,2.86 -8.488,2.415 -11.347,-0.993 l -19.044,-22.695 c -0.011,0.01 -0.023,0.019 -0.035,0.028 1.917,2.651 3.05,5.906 3.05,9.427 0,8.898 -7.213,16.111 -16.11,16.111 -4.955,0 -9.386,-2.239 -12.341,-5.758 l -0.07,0.059 -16.624,-19.813 c 0,10e-4 0,10e-4 -0.001,10e-4 -0.012,0.01 -0.025,0.019 -0.036,0.029 1.912,2.65 3.043,5.901 3.043,9.418 0,4.958 -2.243,9.391 -5.765,12.346 l 15.054,17.942 c 0.052,0.058 0.109,0.111 0.161,0.172 2.859,3.408 2.415,8.489 -0.993,11.348 -3.409,2.86 -8.49,2.415 -11.349,-0.992 l -0.009,0.008 -52.548,-62.624 -0.001,0.002 0.065,0.077 -0.007,0.005 c 2.1,2.609 2.31,6.14 0.782,8.921 3.041,-1.054 6.522,-0.23 8.72,2.39 0.266,0.317 0.519,0.649 0.762,0.989 1.893,2.652 3.057,5.944 3.057,9.427 0,8.898 -7.213,16.111 -16.11,16.111 -3.082,0 -5.962,-0.867 -8.409,-2.369 -0.023,-0.015 -0.046,-0.029 -0.069,-0.043 -0.569,-0.353 -1.111,-0.744 -1.63,-1.163 -0.186,-0.151 -0.372,-0.305 -0.55,-0.464 -0.113,-0.098 -0.223,-0.199 -0.331,-0.301 -0.231,-0.216 -0.457,-0.437 -0.675,-0.667 -0.15,-0.156 -0.291,-0.32 -0.435,-0.482 l 5.48,6.53 c 0.017,0.021 0.036,0.04 0.054,0.061 5.718,6.816 4.83,16.977 -1.986,22.696 -6.816,5.719 -16.977,4.83 -22.697,-1.985 l -10e-4,10e-4 L -325.75,38 c -0.047,-0.056 -0.085,-0.116 -0.131,-0.172 -0.752,-0.921 -1.41,-1.923 -1.946,-2.997 -1.081,-2.164 -1.693,-4.603 -1.693,-7.186 0,-1.387 0.181,-2.729 0.511,-4.013 -3.329,1.973 -7.688,1.316 -10.261,-1.742 l -0.004,-0.006 h -10e-4 v -0.001 l -9.613,-11.455 c -5.718,-6.816 -4.83,-16.978 1.987,-22.697 3.087,-2.59 6.86,-3.82 10.596,-3.762 h 3.332 c 2.359,-0.052 4.719,0.923 6.353,2.87 0.256,0.306 0.474,0.627 0.678,0.956 0.024,-0.021 0.046,-0.043 0.072,-0.064 6.145,-5.156 15.009,-4.939 20.886,0.149 0.048,-0.042 0.094,-0.086 0.143,-0.128 6.135,-5.148 14.979,-4.939 20.856,0.125 0.052,-0.046 0.102,-0.093 0.156,-0.138 6.813,-5.718 16.97,-4.831 22.69,1.979 l 0.007,-0.006 16.633,19.822 c 0.016,-0.013 0.031,-0.024 0.047,-0.037 -4.899,-6.782 -3.801,-16.296 2.71,-21.76 6.813,-5.716 16.97,-4.83 22.69,1.98 l 0.001,-0.001 16.634,19.823 c 0.035,-0.029 0.071,-0.058 0.106,-0.087 -4.908,-6.782 -3.813,-16.305 2.702,-21.77 6.138,-5.152 14.989,-4.94 20.866,0.132 0.053,-0.045 0.103,-0.094 0.157,-0.139 6.815,-5.719 16.978,-4.83 22.696,1.985 0.017,0.02 0.031,0.04 0.047,0.06 l 16.629,19.818 c 0.018,-0.015 0.034,-0.029 0.051,-0.044 -4.949,-6.785 -3.863,-16.34 2.667,-21.819 6.137,-5.15 14.985,-4.939 20.862,0.13 0.049,-0.043 0.096,-0.088 0.147,-0.13 6.143,-5.155 15.004,-4.939 20.88,0.144 0.053,-0.045 0.103,-0.092 0.157,-0.137 6.815,-5.72 16.977,-4.83 22.696,1.985 0.054,0.064 0.104,0.132 0.156,0.196 l 16.465,19.623 h 0.066 c -4.937,-6.785 -3.848,-16.33 2.677,-21.804 6.142,-5.155 15,-4.94 20.877,0.141 0.053,-0.045 0.103,-0.092 0.156,-0.136 6.135,-5.149 14.981,-4.939 20.858,0.126 0.053,-0.045 0.103,-0.093 0.156,-0.138 6.811,-5.715 16.962,-4.831 22.684,1.971 l 29.426,35.068 h 0.002 L 18.636,-2.854 18.637,-2.855 c -2.861,-3.408 -2.415,-8.489 0.992,-11.348 1.466,-1.23 3.239,-1.844 5.014,-1.879 v -0.003 h 0.048 c 0.037,-10e-4 0.073,0 0.11,0 h 41.951 c 0.036,-10e-4 0.072,0 0.108,0 h 0.007 c 2.297,0.001 4.578,0.977 6.17,2.875 2.86,3.407 2.415,8.488 -0.992,11.348"
         style="fill:#ffffff;fill-opacity:1;fill-rule:nonzero;stroke:none"
         id="path3662" /></g><g
       id="g3668"
       transform="matrix(26.666666,0,0,-26.666666,8407.8655,837.22001)"
       style="fill:#000000"
       inkscape:export-xdpi="75"
       inkscape:export-ydpi="75"><path
         d="m 0,0 h 0.006 z m -1.132,-7.047 c -0.788,0 -1.561,0.318 -2.127,0.91 -0.34,0.356 -0.696,0.691 -1.059,0.995 -1.244,1.044 -1.406,2.898 -0.362,4.142 l 2.426,2.891 C -1.379,2.933 0.097,3.239 1.312,2.631 1.514,2.53 1.703,2.406 1.877,2.263 L 1.961,2.195 C 3.08,1.255 3.339,-0.364 2.569,-1.606 2.092,-2.375 1.828,-3.264 1.807,-4.176 1.779,-5.365 1.038,-6.419 -0.07,-6.848 -0.416,-6.982 -0.775,-7.047 -1.132,-7.047 m 1.428,-20.576 c -0.631,0 -1.266,0.202 -1.801,0.617 -0.019,0.015 -0.049,0.038 -0.064,0.051 -1.227,0.98 -1.465,2.753 -0.542,4.023 0.43,0.592 0.806,1.208 1.117,1.83 0.917,1.837 1.382,3.814 1.382,5.873 0,1.097 -0.141,2.201 -0.418,3.282 -0.296,1.153 0.132,2.369 1.084,3.083 0.951,0.714 2.239,0.784 3.262,0.177 2.077,-1.23 4.761,-0.823 6.382,0.969 1.074,1.188 2.903,1.297 4.112,0.244 1.208,-1.053 1.35,-2.879 0.32,-4.107 L 2.55,-26.573 c -0.581,-0.692 -1.414,-1.05 -2.254,-1.05 m -21.021,-0.009 c -0.648,0 -1.299,0.213 -1.841,0.65 -0.028,0.021 -0.077,0.059 -0.092,0.073 -1.142,0.934 -1.413,2.57 -0.636,3.824 0.479,0.771 0.742,1.66 0.764,2.571 0.028,1.189 0.769,2.243 1.878,2.673 1.109,0.428 2.366,0.149 3.187,-0.712 0.339,-0.353 0.695,-0.689 1.06,-0.995 1.243,-1.044 1.404,-2.897 0.361,-4.14 l -2.427,-2.894 c -0.581,-0.692 -1.415,-1.05 -2.254,-1.05 m 313.971,-1.921 c -0.677,0 -1.356,0.233 -1.911,0.707 -1.225,1.049 -1.376,2.888 -0.34,4.123 l 9.507,11.329 c 1.043,1.243 2.895,1.406 4.14,0.365 1.244,-1.042 1.408,-2.895 0.367,-4.14 -0.001,-0.001 -0.002,-0.003 -0.003,-0.004 l -0.005,-0.007 c -1.341,-1.611 -1.563,-3.845 -0.566,-5.696 0.571,-1.061 0.437,-2.362 -0.338,-3.285 -0.775,-0.922 -2.033,-1.278 -3.177,-0.899 -1.957,0.65 -4.102,0.067 -5.458,-1.487 -0.581,-0.665 -1.397,-1.006 -2.216,-1.006 m -8.805,-10.493 c -0.69,0 -1.383,0.242 -1.941,0.734 -1.107,0.975 -1.308,2.6 -0.525,3.804 10e-4,0.002 0.003,0.004 0.003,0.006 10e-4,0.001 10e-4,0.003 0.002,0.004 0,0 10e-4,0 10e-4,10e-4 0.054,0.082 0.112,0.161 0.175,0.239 10e-4,0.003 0.003,0.004 0.005,0.006 10e-4,0.002 0.002,0.003 0.003,0.005 0.001,0 0.002,10e-4 0.002,0.002 0.017,0.019 0.033,0.04 0.05,0.059 l 0.014,0.017 c 1.006,1.167 2.743,1.36 3.981,0.44 1.237,-0.919 1.555,-2.638 0.726,-3.938 -0.092,-0.146 -0.206,-0.294 -0.325,-0.423 l -0.002,-0.002 c -0.003,-0.003 -0.006,-0.006 -0.007,-0.009 -0.579,-0.626 -1.369,-0.945 -2.162,-0.945 m -94.607,-6.314 c 0.689,0 1.378,-0.243 1.932,-0.725 l 0.098,-0.088 c 4.986,-4.184 12.163,-4.137 17.073,0.11 1.097,0.951 2.723,0.956 3.827,0.018 l 0.142,-0.125 c 5.564,-4.671 13.889,-3.94 18.556,1.621 l 0.12,0.153 16.501,19.667 c 0.559,0.665 1.384,1.049 2.252,1.049 h 0.065 c 1.107,0 2.12,-0.62 2.621,-1.605 0.501,-0.986 0.408,-2.17 -0.243,-3.064 -4.049,-5.566 -3.088,-13.395 2.19,-17.823 4.979,-4.179 12.156,-4.13 17.064,0.114 1.108,0.956 2.747,0.954 3.851,-0.004 l 0.1,-0.088 c 4.99,-4.189 12.16,-4.146 17.067,0.085 1.106,0.954 2.745,0.951 3.848,-0.008 l 0.108,-0.096 c 5.564,-4.672 13.884,-3.947 18.553,1.602 l 29.423,35.065 c 0.559,0.666 1.384,1.05 2.252,1.05 1.143,0 2.183,-0.662 2.666,-1.697 0.483,-1.036 0.324,-2.257 -0.411,-3.132 l -23.134,-27.57 c -1.811,-2.16 -1.529,-5.393 0.632,-7.206 0.901,-0.756 2.001,-1.169 3.182,-1.192 0.02,0 0.042,-10e-4 0.062,-0.002 h 42.097 c 1.524,10e-4 2.952,0.666 3.925,1.825 0.878,1.046 1.296,2.372 1.177,3.734 -0.118,1.361 -0.761,2.593 -1.808,3.472 -0.931,0.782 -2.066,1.194 -3.284,1.194 h -0.002 -24.789 c -1.143,0 -2.182,0.662 -2.664,1.698 -0.484,1.035 -0.322,2.257 0.412,3.132 l 23.133,27.569 c 1.812,2.16 1.53,5.393 -0.631,7.206 -0.931,0.781 -2.067,1.194 -3.284,1.194 h -0.003 -20.834 c -0.067,-0.004 -0.134,-0.006 -0.201,-0.006 -1.496,-0.001 -2.905,-0.646 -3.876,-1.773 -0.031,-0.04 -0.062,-0.079 -0.095,-0.119 -0.042,-0.051 -0.086,-0.1 -0.132,-0.148 l -21.918,-26.121 c -0.041,-0.047 -0.083,-0.095 -0.127,-0.141 -0.036,-0.05 -0.075,-0.1 -0.116,-0.148 l -9.491,-11.312 c -0.53,-0.632 -1.3,-1.012 -2.124,-1.048 -0.826,-0.034 -1.624,0.276 -2.207,0.858 l -0.002,0.003 c -1.071,1.07 -1.154,2.776 -0.194,3.945 1.382,1.649 1.613,3.888 0.619,5.744 -0.57,1.063 -0.433,2.366 0.345,3.287 0.78,0.92 2.043,1.272 3.184,0.888 1.942,-0.653 4.062,-0.084 5.398,1.453 0.031,0.035 0.063,0.069 0.095,0.103 0.027,0.038 0.056,0.075 0.086,0.112 1.943,2.393 3.013,5.368 3.013,8.377 0,7.262 -5.909,13.17 -13.17,13.17 -3.899,0 -7.576,-1.716 -10.09,-4.707 l -0.08,-0.093 -6.194,-7.382 c -1.042,-1.243 -2.895,-1.406 -4.14,-0.363 -1.244,1.043 -1.407,2.896 -0.365,4.141 1.808,2.16 1.524,5.391 -0.634,7.202 -1.046,0.878 -2.374,1.296 -3.734,1.178 -1.34,-0.118 -2.556,-0.742 -3.432,-1.761 -0.027,-0.033 -0.052,-0.066 -0.074,-0.092 l -7.816,-9.314 c -0.558,-0.666 -1.383,-1.051 -2.252,-1.051 h -0.136 c -1.063,0 -2.043,0.574 -2.563,1.501 -0.521,0.927 -0.5,2.063 0.053,2.97 1.302,2.137 0.84,4.961 -1.077,6.569 -2.161,1.813 -5.392,1.531 -7.206,-0.63 -0.041,-0.049 -0.083,-0.096 -0.126,-0.141 l -18.922,-22.551 c -1.035,-1.233 -2.869,-1.405 -4.114,-0.386 l -0.057,0.045 c -1.207,0.988 -1.433,2.745 -0.516,4.006 1.645,2.261 2.515,4.935 2.515,7.732 0,7.262 -5.908,13.17 -13.171,13.17 -4.17,0 -8.139,-2.01 -10.616,-5.377 -0.037,-0.051 -0.076,-0.1 -0.117,-0.148 l -15.978,-19.043 c -1.003,-1.195 -2.767,-1.398 -4.016,-0.462 -0.025,0.019 -0.084,0.065 -0.107,0.083 -1.229,0.983 -1.466,2.758 -0.539,4.028 1.651,2.263 2.523,4.943 2.523,7.749 0,7.262 -5.908,13.17 -13.171,13.17 -3.917,0 -7.605,-1.729 -10.12,-4.744 -0.042,-0.049 -0.084,-0.097 -0.128,-0.143 l -6.129,-7.303 c -1.042,-1.24 -2.891,-1.405 -4.134,-0.368 -1.246,1.038 -1.415,2.886 -0.382,4.134 1.788,2.158 1.497,5.379 -0.65,7.179 -1.046,0.878 -2.368,1.296 -3.733,1.178 -1.361,-0.12 -2.595,-0.762 -3.473,-1.808 L 128.818,-26.63 c -0.511,-0.61 -1.248,-0.986 -2.042,-1.043 -0.75,-0.055 -1.486,0.181 -2.065,0.652 -0.006,0.004 -0.011,0.009 -0.016,0.012 -1.224,0.981 -1.465,2.748 -0.546,4.019 1.631,2.255 2.494,4.92 2.494,7.705 0,7.263 -5.909,13.171 -13.171,13.171 -3.899,0 -7.576,-1.717 -10.089,-4.709 -0.162,-0.193 -0.343,-0.36 -0.539,-0.5 L 86.688,-26.576 c -0.505,-0.603 -1.232,-0.978 -2.016,-1.041 -0.76,-0.062 -1.506,0.174 -2.092,0.651 -0.012,0.009 -0.023,0.019 -0.031,0.025 -1.213,0.982 -1.447,2.74 -0.533,4.005 1.627,2.253 2.486,4.915 2.486,7.698 0,3.901 -1.718,7.581 -4.714,10.093 -0.598,0.502 -0.972,1.22 -1.04,1.997 -0.067,0.776 0.176,1.548 0.677,2.146 l 15.054,17.941 c 0.017,0.019 0.033,0.038 0.049,0.057 0.048,0.053 0.096,0.105 0.146,0.156 0.854,1.04 1.261,2.349 1.143,3.693 -0.119,1.361 -0.76,2.594 -1.807,3.473 -1.047,0.878 -2.374,1.299 -3.735,1.177 -1.36,-0.119 -2.593,-0.761 -3.471,-1.808 -0.06,-0.07 -0.121,-0.138 -0.186,-0.202 L 34.246,-38.928 c -1.025,-1.222 -2.842,-1.403 -4.089,-0.405 -0.617,0.494 -1.011,1.217 -1.089,2.004 -0.072,0.724 0.126,1.446 0.553,2.029 0.044,0.066 0.091,0.128 0.14,0.19 1.301,1.617 1.496,3.839 0.496,5.663 -0.511,0.928 -0.477,2.049 0.061,2.936 -0.783,-0.682 -1.881,-0.907 -2.883,-0.566 -1.421,0.488 -2.977,0.325 -4.267,-0.443 -0.054,-0.032 -0.107,-0.061 -0.162,-0.089 -0.413,-0.269 -0.781,-0.591 -1.098,-0.963 -0.032,-0.037 -0.065,-0.074 -0.098,-0.11 -0.015,-0.018 -0.031,-0.038 -0.046,-0.056 -0.004,-0.005 -0.009,-0.01 -0.013,-0.015 l -8.45,-10.07 c -0.023,-0.03 -0.046,-0.058 -0.07,-0.086 -0.035,-0.042 -0.077,-0.088 -0.118,-0.132 -1.059,-1.143 -2.842,-1.262 -4.047,-0.248 -1.241,1.044 -1.401,2.896 -0.358,4.14 l 8.542,10.179 c 0.024,0.03 0.05,0.059 0.075,0.087 0.026,0.032 0.052,0.065 0.078,0.097 0.002,0.002 0.004,0.005 0.007,0.008 l 1.62,1.93 c 0.013,0.016 0.026,0.032 0.039,0.047 l 7.933,9.453 c 0.011,0.014 0.021,0.027 0.033,0.04 1.045,1.224 2.882,1.381 4.119,0.347 1.246,-1.04 1.414,-2.893 0.375,-4.14 -0.003,-0.003 -0.006,-0.006 -0.008,-0.009 -0.925,-1.111 -1.335,-2.571 -1.125,-4.008 0.091,-0.618 0.287,-1.202 0.582,-1.737 0.514,-0.933 0.479,-2.06 -0.065,-2.952 0.784,0.678 1.882,0.9 2.884,0.552 1.998,-0.693 4.157,-0.102 5.504,1.501 0.203,0.243 0.414,0.517 0.622,0.809 1.618,2.265 2.51,5.007 2.51,7.717 0,7.263 -5.909,13.171 -13.171,13.171 -2.433,0 -4.809,-0.669 -6.871,-1.935 C 22.389,-3.993 22.337,-4.025 22.335,-4.026 21.89,-4.303 21.441,-4.623 21.001,-4.979 20.853,-5.1 20.7,-5.225 20.554,-5.355 20.462,-5.436 20.372,-5.519 20.282,-5.602 20.094,-5.779 19.908,-5.959 19.729,-6.148 19.63,-6.252 19.536,-6.359 19.442,-6.466 l -0.077,-0.087 c -1.066,-1.205 -2.902,-1.33 -4.121,-0.279 -1.219,1.05 -1.367,2.884 -0.333,4.117 l 5.479,6.529 c 0.017,0.02 0.051,0.06 0.076,0.088 4.643,5.563 3.909,13.867 -1.645,18.528 C 13.258,27.097 4.935,26.369 0.266,20.807 0.243,20.779 0.221,20.753 0.197,20.727 L -17.99,-0.948 c -0.045,-0.061 -0.084,-0.113 -0.125,-0.163 -0.653,-0.8 -1.189,-1.624 -1.614,-2.477 -0.917,-1.836 -1.382,-3.812 -1.382,-5.872 0,-1.097 0.14,-2.201 0.418,-3.282 0.296,-1.153 -0.132,-2.369 -1.083,-3.083 -0.953,-0.713 -2.241,-0.783 -3.264,-0.178 -2.157,1.279 -4.897,0.815 -6.511,-1.105 -0.01,-0.01 -0.018,-0.021 -0.027,-0.032 l -9.589,-11.427 c -4.668,-5.564 -3.94,-13.887 1.623,-18.555 2.421,-2.031 5.503,-3.115 8.662,-3.075 h 3.377 0.065 c 1.558,-0.052 3.036,0.629 4.036,1.821 0.133,0.159 0.268,0.352 0.424,0.605 0.451,0.734 1.201,1.233 2.052,1.366 0.851,0.133 1.717,-0.115 2.37,-0.676 0.015,-0.013 0.045,-0.04 0.069,-0.061 4.996,-4.161 12.151,-4.099 17.048,0.14 1.104,0.956 2.744,0.956 3.848,0 l 0.122,-0.109 c 4.958,-4.16 12.126,-4.119 17.034,0.109 1.105,0.95 2.739,0.95 3.841,-0.002 l 0.111,-0.099 c 5.574,-4.676 13.894,-3.951 18.563,1.607 0.051,0.06 0.105,0.119 0.16,0.176 l 16.479,19.638 c 0.503,0.6 1.223,0.974 2.002,1.04 0.766,0.067 1.523,-0.17 2.115,-0.656 l 0.039,-0.031 c 1.207,-0.983 1.439,-2.738 0.525,-4.001 -4.015,-5.56 -3.042,-13.372 2.216,-17.786 5.562,-4.665 13.882,-3.94 18.55,1.618 0.024,0.028 0.047,0.056 0.072,0.083 l 16.563,19.738 c 0.503,0.601 1.226,0.975 2.007,1.04 0.778,0.065 1.555,-0.184 2.152,-0.692 l 0.085,-0.068 c 1.185,-0.992 1.401,-2.729 0.496,-3.98 -4.024,-5.561 -3.055,-13.378 2.209,-17.795 4.976,-4.175 12.148,-4.129 17.056,0.107 1.106,0.955 2.747,0.951 3.85,-0.008 l 0.101,-0.09 c 2.712,-2.276 6.121,-3.35 9.63,-3.047 3.499,0.307 6.668,1.954 8.928,4.64 l 0.042,0.053 16.647,19.839 c 0.506,0.603 1.231,0.978 2.016,1.041 0.782,0.068 1.56,-0.19 2.156,-0.703 0.01,-0.009 0.031,-0.027 0.046,-0.041 1.162,-0.996 1.366,-2.722 0.461,-3.963 -4.062,-5.567 -3.104,-13.401 2.179,-17.835 4.974,-4.172 12.146,-4.129 17.053,0.105 0.552,0.475 1.236,0.714 1.921,0.714 m 10.508,-9.808 c -3.656,0 -7.315,1.059 -10.51,3.182 -6.96,-4.632 -16.183,-4.208 -22.751,1.303 -3.898,3.272 -6.169,7.825 -6.678,12.569 l -8.497,-10.127 c -0.03,-0.038 -0.06,-0.075 -0.092,-0.112 -3.254,-3.879 -7.847,-6.27 -12.917,-6.714 -4.346,-0.378 -8.594,0.71 -12.173,3.088 -6.962,-4.633 -16.186,-4.21 -22.755,1.302 -3.921,3.29 -6.195,7.885 -6.683,12.666 l -8.617,-10.268 c -0.025,-0.032 -0.053,-0.063 -0.08,-0.092 -6.767,-7.954 -18.743,-8.971 -26.754,-2.249 -3.89,3.265 -6.158,7.814 -6.67,12.557 l -8.576,-10.22 c -0.057,-0.068 -0.116,-0.132 -0.178,-0.194 -6.307,-7.305 -17.043,-8.663 -24.93,-3.437 -6.361,-4.229 -14.611,-4.237 -20.996,0.001 -6.185,-4.132 -14.162,-4.265 -20.479,-0.373 -2.055,-1.842 -4.741,-2.829 -7.54,-2.791 h -3.303 c -4.537,-0.08 -8.982,1.511 -12.486,4.451 -3.899,3.271 -6.29,7.863 -6.733,12.933 -0.444,5.068 1.114,10.007 4.384,13.905 l 9.612,11.455 c 2.316,2.753 5.701,4.122 9.069,3.914 0.006,2.966 0.679,5.811 2.001,8.458 0.612,1.225 1.373,2.402 2.264,3.499 0.066,0.089 0.124,0.167 0.188,0.242 l 18.299,21.807 c 0.024,0.03 0.05,0.059 0.075,0.087 6.766,7.966 18.747,8.987 26.765,2.26 6.907,-5.796 8.661,-15.488 4.749,-23.206 0.632,0.063 1.271,0.095 1.912,0.095 9.803,0 17.9,-7.443 18.938,-16.974 l 34.089,40.626 c 0.069,0.082 0.143,0.16 0.218,0.233 1.872,2.107 4.436,3.398 7.257,3.645 2.929,0.256 5.776,-0.644 8.025,-2.531 2.25,-1.888 3.63,-4.539 3.886,-7.464 0.256,-2.926 -0.643,-5.776 -2.531,-8.026 -0.068,-0.082 -0.138,-0.158 -0.21,-0.233 L 85.675,-2.703 c 2.566,-2.931 4.17,-6.573 4.594,-10.458 l 8.54,10.177 c 0.176,0.21 0.376,0.389 0.591,0.537 3.611,3.958 8.695,6.213 14.072,6.213 9.8,0 17.897,-7.44 18.937,-16.969 l 10.949,13.048 c 3.897,4.644 10.846,5.252 15.49,1.354 1.412,-1.184 2.45,-2.654 3.101,-4.257 l 0.021,0.024 c 0.045,0.053 0.091,0.104 0.138,0.154 3.63,4.261 8.905,6.7 14.503,6.7 9.804,0 17.902,-7.443 18.939,-16.976 l 7.788,9.282 c 3.585,4.82 9.295,7.694 15.294,7.694 9.815,0 17.921,-7.461 18.942,-17.01 l 10.941,13.038 c 0.047,0.056 0.096,0.111 0.147,0.163 1.877,2.152 4.469,3.469 7.321,3.719 2.923,0.258 5.777,-0.642 8.026,-2.531 1.402,-1.176 2.442,-2.654 3.095,-4.274 l 2.366,2.821 c 0.028,0.035 0.055,0.07 0.081,0.099 1.886,2.249 4.537,3.629 7.463,3.885 2.923,0.258 5.776,-0.642 8.025,-2.531 1.414,-1.186 2.454,-2.656 3.107,-4.257 l 0.029,0.034 c 3.63,4.321 8.947,6.801 14.588,6.801 9.799,0 17.893,-7.438 18.936,-16.964 l 13.29,15.838 c 0.021,0.026 0.042,0.05 0.064,0.074 10e-4,10e-4 10e-4,0.002 0.002,0.003 2.036,2.426 5.008,3.847 8.179,3.916 0.079,0.006 0.159,0.009 0.239,0.009 h 21.036 0.004 c 2.579,0 5.089,-0.912 7.063,-2.57 2.25,-1.887 3.63,-4.538 3.886,-7.464 0.256,-2.926 -0.643,-5.776 -2.53,-8.025 l -19.08,-22.74 h 18.483 0.003 c 2.58,0 5.089,-0.913 7.063,-2.57 2.25,-1.887 3.63,-4.538 3.886,-7.464 0.257,-2.925 -0.641,-5.776 -2.53,-8.026 -2.091,-2.492 -5.16,-3.923 -8.42,-3.925 l -0.164,10e-4 -41.905,-10e-4 -0.155,10e-4 c -0.035,0 -0.07,0.002 -0.105,0.003 -2.486,0.061 -4.9,0.971 -6.801,2.566 -1.388,1.165 -2.446,2.621 -3.112,4.252 l -0.034,-0.042 c -6.286,-7.471 -17.14,-8.895 -25.093,-3.627 -6.366,-4.233 -14.624,-4.238 -21.012,0.008 -6.963,-4.644 -16.192,-4.225 -22.768,1.293 -3.891,3.266 -6.161,7.81 -6.673,12.547 l -8.393,-10.002 c -0.048,-0.062 -0.097,-0.125 -0.148,-0.186 -6.29,-7.495 -17.15,-8.929 -25.112,-3.656 -3.188,-2.128 -6.853,-3.194 -10.52,-3.194"
         style="fill:#000000;fill-opacity:1;fill-rule:nonzero;stroke:none"
         id="path3666" /></g><g
       id="g3672"
       transform="matrix(26.666666,0,0,-26.666666,8409.6895,838.69201)"
       inkscape:export-xdpi="75"
       inkscape:export-ydpi="75"><path
         d="m 0,0 -2.426,-2.891 c 0.454,-0.381 0.886,-0.788 1.295,-1.217 0.033,1.401 0.43,2.802 1.203,4.05 -0.023,0.019 -0.047,0.037 -0.07,0.057 C 0.001,-0.001 0.001,0 0,0"
         style="fill:#fcf8d1;fill-opacity:1;fill-rule:nonzero;stroke:none"
         id="path3670" /></g><g
       id="g3676"
       transform="matrix(26.666666,0,0,-26.666666,8379.5588,1026.636)"
       style="fill:#000000"
       inkscape:export-xdpi="75"
       inkscape:export-ydpi="75"><path
         d="m 0,0 c -0.788,0 -1.562,0.317 -2.127,0.909 -0.34,0.356 -0.696,0.692 -1.06,0.997 -1.243,1.044 -1.404,2.897 -0.361,4.14 l 2.426,2.892 C -0.592,9.569 0.179,9.949 1.002,9.985 1.743,10.021 2.462,9.77 3.023,9.297 3.042,9.283 3.058,9.271 3.076,9.255 4.208,8.319 4.476,6.69 3.701,5.441 3.224,4.671 2.96,3.782 2.938,2.871 2.911,1.682 2.17,0.627 1.062,0.198 0.716,0.065 0.356,0 0,0"
         style="fill:#000000;fill-opacity:1;fill-rule:nonzero;stroke:none"
         id="path3674" /></g><g
       id="g3680"
       transform="matrix(26.666666,0,0,-26.666666,7575.6256,1826.8307)"
       inkscape:export-xdpi="75"
       inkscape:export-ydpi="75"><path
         d="M 0,0 10.414,12.476"
         style="fill:#fcf8d1;fill-opacity:1;fill-rule:nonzero;stroke:none"
         id="path3678" /></g><g
       id="g3684"
       transform="matrix(26.666666,0,0,-26.666666,7575.6016,1905.2413)"
       style="fill:#000000"
       inkscape:export-xdpi="75"
       inkscape:export-ydpi="75"><path
         d="M 0,0 C -0.665,0 -1.333,0.224 -1.883,0.683 -3.13,1.724 -3.296,3.577 -2.256,4.824 L 8.158,17.3 c 1.04,1.246 2.895,1.413 4.141,0.373 1.246,-1.04 1.413,-2.895 0.373,-4.142 L 2.258,1.056 C 1.677,0.359 0.841,0 0,0"
         style="fill:#000000;fill-opacity:1;fill-rule:nonzero;stroke:none"
         id="path3682" /></g><g
       id="g3688"
       transform="matrix(26.666666,0,0,-26.666666,10034.951,1573.444)"
       inkscape:export-xdpi="75"
       inkscape:export-ydpi="75"><path
         d="M 0,0 10.395,12.323"
         style="fill:#fcf8d1;fill-opacity:1;fill-rule:nonzero;stroke:none"
         id="path3686" /></g><g
       id="g3692"
       transform="matrix(26.666666,0,0,-26.666666,10034.897,1651.8573)"
       style="fill:#000000"
       inkscape:export-xdpi="75"
       inkscape:export-ydpi="75"><path
         d="M 0,0 C -0.669,0 -1.342,0.228 -1.894,0.693 -3.135,1.739 -3.292,3.595 -2.245,4.836 L 8.149,17.159 c 1.047,1.241 2.902,1.399 4.143,0.352 1.241,-1.046 1.399,-2.902 0.353,-4.143 L 2.25,1.045 C 1.668,0.355 0.837,0 0,0"
         style="fill:#000000;fill-opacity:1;fill-rule:nonzero;stroke:none"
         id="path3690" /></g><g
       id="g3696"
       transform="matrix(26.666666,0,0,-26.666666,10385.055,1826.284)"
       inkscape:export-xdpi="75"
       inkscape:export-ydpi="75"><path
         d="M 0,0 10.292,12.403"
         style="fill:#fcf8d1;fill-opacity:1;fill-rule:nonzero;stroke:none"
         id="path3694" /></g><g
       id="g3700"
       transform="matrix(26.666666,0,0,-26.666666,10385.001,1904.668)"
       style="fill:#000000"
       inkscape:export-xdpi="75"
       inkscape:export-ydpi="75"><path
         d="m 0,0 c -0.661,0 -1.326,0.222 -1.875,0.678 -1.25,1.036 -1.422,2.889 -0.386,4.139 L 8.031,17.221 c 1.036,1.25 2.892,1.421 4.14,0.384 1.25,-1.036 1.423,-2.889 0.386,-4.139 L 2.265,1.062 C 1.684,0.361 0.845,0 0,0"
         style="fill:#000000;fill-opacity:1;fill-rule:nonzero;stroke:none"
         id="path3698" /></g><g
       id="g3704"
       transform="matrix(26.666666,0,0,-26.666666,11506.695,1826.284)"
       inkscape:export-xdpi="75"
       inkscape:export-ydpi="75"><path
         d="M 0,0 10.326,12.377"
         style="fill:#fcf8d1;fill-opacity:1;fill-rule:nonzero;stroke:none"
         id="path3702" /></g><g
       id="g3708"
       transform="matrix(26.666666,0,0,-26.666666,11506.641,1904.668)"
       style="fill:#000000"
       inkscape:export-xdpi="75"
       inkscape:export-ydpi="75"><path
         d="m 0,0 c -0.664,0 -1.332,0.224 -1.882,0.683 -1.246,1.04 -1.414,2.894 -0.374,4.14 L 8.07,17.2 c 1.04,1.246 2.894,1.414 4.142,0.374 1.246,-1.04 1.414,-2.894 0.373,-4.14 L 2.259,1.057 C 1.678,0.359 0.842,0 0,0"
         style="fill:#000000;fill-opacity:1;fill-rule:nonzero;stroke:none"
         id="path3706" /></g><g
       id="g3712"
       transform="matrix(26.666666,0,0,-26.666666,12842.657,1573.524)"
       inkscape:export-xdpi="75"
       inkscape:export-ydpi="75"><path
         d="M 0,0 10.266,12.333"
         style="fill:#fcf8d1;fill-opacity:1;fill-rule:nonzero;stroke:none"
         id="path3710" /></g><g
       id="g3716"
       transform="matrix(26.666666,0,0,-26.666666,12842.607,1651.9347)"
       style="fill:#000000"
       inkscape:export-xdpi="75"
       inkscape:export-ydpi="75"><path
         d="m 0,0 c -0.662,0 -1.329,0.224 -1.878,0.681 -1.249,1.039 -1.418,2.892 -0.38,4.14 L 8.008,17.154 c 1.038,1.248 2.893,1.417 4.139,0.379 1.249,-1.039 1.418,-2.892 0.379,-4.14 L 2.262,1.06 C 1.681,0.361 0.844,0 0,0"
         style="fill:#000000;fill-opacity:1;fill-rule:nonzero;stroke:none"
         id="path3714" /></g><g
       id="g3720"
       transform="matrix(26.666666,0,0,-26.666666,8529.9242,1363.732)"
       inkscape:export-xdpi="75"
       inkscape:export-ydpi="75"><path
         d="M 0,0 -0.051,-0.061 C -0.034,-0.04 -0.017,-0.021 0,0"
         style="fill:#fcf8d1;fill-opacity:1;fill-rule:nonzero;stroke:none"
         id="path3718" /></g><g
       id="g3728"
       transform="matrix(26.666666,0,0,-26.666666,8474.0655,761.92134)"
       inkscape:export-xdpi="75"
       inkscape:export-ydpi="75"><path
         d="M 0,0 C 0,0 0.001,0 0.001,-0.001 L 0.003,0.001 0.001,0.002 Z"
         style="fill:#fcf8d1;fill-opacity:1;fill-rule:nonzero;stroke:none"
         id="path3726" /></g><g
       id="g3732"
       transform="matrix(26.666666,0,0,-26.666666,8534.3242,812.06534)"
       inkscape:export-xdpi="75"
       inkscape:export-ydpi="75"><path
         d="m 0,0 h 0.006 z m -2.261,-1.061 c -0.445,0 -0.894,0.102 -1.312,0.311 -0.399,0.199 -0.747,0.487 -1.019,0.84 -0.837,1.091 -0.806,2.616 0.073,3.673 l 0.002,10e-4 c 0.529,0.635 1.3,1.018 2.125,1.055 0.825,0.041 1.628,-0.274 2.212,-0.858 1.076,-1.075 1.155,-2.794 0.182,-3.962 -0.574,-0.689 -1.411,-1.06 -2.263,-1.06"
         style="fill:#231f20;fill-opacity:1;fill-rule:nonzero;stroke:none"
         id="path3730" /></g><g
       id="g3736"
       transform="matrix(26.666666,0,0,-26.666666,8685.8362,509.60402)"
       inkscape:export-xdpi="75"
       inkscape:export-ydpi="75"><path
         d="M 0,0 -10.355,-12.341"
         style="fill:#fcf8d1;fill-opacity:1;fill-rule:nonzero;stroke:none"
         id="path3734" /></g><g
       id="g3740"
       transform="matrix(26.666666,0,0,-26.666666,8409.6628,917.09201)"
       style="fill:#000000"
       inkscape:export-xdpi="75"
       inkscape:export-ydpi="75"><path
         d="M 0,0 C -0.667,0 -1.337,0.226 -1.889,0.688 -3.132,1.731 -3.295,3.586 -2.251,4.83 L 8.104,17.171 c 1.043,1.244 2.898,1.406 4.142,0.362 1.244,-1.044 1.406,-2.898 0.362,-4.142 L 2.254,1.05 C 1.672,0.357 0.839,0 0,0"
         style="fill:#000000;fill-opacity:1;fill-rule:nonzero;stroke:none"
         id="path3738" /></g><g
       id="g3744"
       transform="matrix(26.666666,0,0,-26.666666,11433.777,1244.8253)"
       inkscape:export-xdpi="75"
       inkscape:export-ydpi="75"><path
         d="M 0,0 -10.351,-12.339"
         style="fill:#fcf8d1;fill-opacity:1;fill-rule:nonzero;stroke:none"
         id="path3742" /></g><g
       id="g3748"
       transform="matrix(26.666666,0,0,-26.666666,11157.711,1652.2467)"
       style="fill:#000000"
       inkscape:export-xdpi="75"
       inkscape:export-ydpi="75"><path
         d="M 0,0 C -0.666,0 -1.337,0.226 -1.888,0.688 -3.132,1.731 -3.294,3.586 -2.25,4.83 L 8.101,17.168 c 1.043,1.243 2.897,1.406 4.141,0.363 1.244,-1.044 1.406,-2.898 0.362,-4.142 L 2.254,1.051 C 1.673,0.357 0.84,0 0,0"
         style="fill:#000000;fill-opacity:1;fill-rule:nonzero;stroke:none"
         id="path3746" /></g><g
       id="g3752"
       transform="matrix(26.666666,0,0,-26.666666,14238.361,1244.8253)"
       inkscape:export-xdpi="75"
       inkscape:export-ydpi="75"><path
         d="M 0,0 -18.315,-21.798"
         style="fill:#fcf8d1;fill-opacity:1;fill-rule:nonzero;stroke:none"
         id="path3750" /></g><g
       id="g3756"
       transform="matrix(26.666666,0,0,-26.666666,13749.897,1904.5133)"
       style="fill:#000000"
       inkscape:export-xdpi="75"
       inkscape:export-ydpi="75"><path
         d="m 0,0 c -0.668,0 -1.339,0.227 -1.89,0.689 -1.244,1.045 -1.404,2.9 -0.36,4.143 L 16.066,26.63 c 1.045,1.243 2.9,1.404 4.143,0.359 1.243,-1.045 1.403,-2.899 0.359,-4.142 L 2.252,1.049 C 1.671,0.357 0.838,0 0,0"
         style="fill:#000000;fill-opacity:1;fill-rule:nonzero;stroke:none"
         id="path3754" /></g><g
       id="g3760"
       transform="matrix(26.666666,0,0,-26.666666,13677.372,1244.8253)"
       inkscape:export-xdpi="75"
       inkscape:export-ydpi="75"><path
         d="M 0,0 -18.315,-21.798"
         style="fill:#fcf8d1;fill-opacity:1;fill-rule:nonzero;stroke:none"
         id="path3758" /></g><g
       id="g3764"
       transform="matrix(26.666666,0,0,-26.666666,13188.908,1904.5133)"
       style="fill:#000000"
       inkscape:export-xdpi="75"
       inkscape:export-ydpi="75"><path
         d="m 0,0 c -0.667,0 -1.338,0.227 -1.89,0.689 -1.243,1.045 -1.404,2.9 -0.359,4.143 L 16.066,26.63 c 1.046,1.243 2.9,1.404 4.143,0.359 1.243,-1.045 1.404,-2.899 0.359,-4.142 L 2.253,1.049 C 1.671,0.357 0.839,0 0,0"
         style="fill:#000000;fill-opacity:1;fill-rule:nonzero;stroke:none"
         id="path3762" /></g><g
       id="g3768"
       transform="matrix(26.666666,0,0,-26.666666,14585.601,1495.6573)"
       inkscape:export-xdpi="75"
       inkscape:export-ydpi="75"><path
         d="M 0,0 -10.308,-12.392"
         style="fill:#fcf8d1;fill-opacity:1;fill-rule:nonzero;stroke:none"
         id="path3766" /></g><g
       id="g3772"
       transform="matrix(26.666666,0,0,-26.666666,14310.705,1904.5133)"
       style="fill:#000000"
       inkscape:export-xdpi="75"
       inkscape:export-ydpi="75"><path
         d="M 0,0 C -0.663,0 -1.33,0.224 -1.879,0.681 -3.127,1.719 -3.298,3.572 -2.259,4.82 L 8.049,17.212 c 1.037,1.247 2.891,1.418 4.139,0.38 1.249,-1.038 1.419,-2.892 0.38,-4.141 L 2.262,1.061 C 1.681,0.361 0.843,0 0,0"
         style="fill:#000000;fill-opacity:1;fill-rule:nonzero;stroke:none"
         id="path3770" /></g><g
       id="g3776"
       transform="matrix(26.666666,0,0,-26.666666,15985.132,1167.756)"
       inkscape:export-xdpi="75"
       inkscape:export-ydpi="75"><path
         d="M 0,0 -20.737,-24.688"
         style="fill:#fcf8d1;fill-opacity:1;fill-rule:nonzero;stroke:none"
         id="path3774" /></g><g
       id="g3780"
       transform="matrix(26.666666,0,0,-26.666666,15432.084,1904.5133)"
       style="fill:#000000"
       inkscape:export-xdpi="75"
       inkscape:export-ydpi="75"><path
         d="M 0,0 C -0.667,0 -1.338,0.226 -1.89,0.689 -3.133,1.733 -3.294,3.588 -2.249,4.831 L 18.488,29.52 c 1.044,1.242 2.899,1.404 4.142,0.36 1.243,-1.045 1.404,-2.899 0.36,-4.143 L 2.253,1.05 C 1.671,0.357 0.838,0 0,0"
         style="fill:#000000;fill-opacity:1;fill-rule:nonzero;stroke:none"
         id="path3778" /></g><g
       id="g3784"
       transform="matrix(26.666666,0,0,-26.666666,8914.4042,1573.8867)"
       inkscape:export-xdpi="75"
       inkscape:export-ydpi="75"><path
         d="m 0,0 v 0 l -7.965,-9.492 c 0.008,0.01 0.017,0.017 0.025,0.026 l -0.002,10e-4 8.531,10.167 0.003,0.003 z"
         style="fill:#fcf8d1;fill-opacity:1;fill-rule:nonzero;stroke:none"
         id="path3782" /></g><g
       id="g3792"
       transform="matrix(26.666666,0,0,-26.666666,8930.1828,1555.0867)"
       inkscape:export-xdpi="75"
       inkscape:export-ydpi="75"><path
         d="M 0,0 0.209,0.25 C 0.139,0.167 0.068,0.085 0,0"
         style="fill:#fcf8d1;fill-opacity:1;fill-rule:nonzero;stroke:none"
         id="path3790" /></g><g
       id="g3800"
       transform="matrix(26.666666,0,0,-26.666666,8753.1535,1097.1427)"
       inkscape:export-xdpi="75"
       inkscape:export-ydpi="75"><path
         d="M 0,0 4.285,5.085"
         style="fill:#fcf8d1;fill-opacity:1;fill-rule:nonzero;stroke:none"
         id="path3798" /></g><g
       id="g3804"
       transform="matrix(26.666666,0,0,-26.666666,8753.1268,1175.5533)"
       style="fill:#000000"
       inkscape:export-xdpi="75"
       inkscape:export-ydpi="75"><path
         d="m 0,0 c -0.669,0 -1.342,0.228 -1.894,0.692 -1.241,1.046 -1.4,2.901 -0.353,4.142 L 2.038,9.92 c 1.047,1.242 2.901,1.4 4.143,0.354 1.242,-1.046 1.4,-2.901 0.354,-4.143 L 2.249,1.046 C 1.668,0.355 0.837,0 0,0"
         style="fill:#000000;fill-opacity:1;fill-rule:nonzero;stroke:none"
         id="path3802" /></g><g
       id="g3808"
       transform="matrix(26.666666,0,0,-26.666666,8415.0015,1494.7987)"
       inkscape:export-xdpi="75"
       inkscape:export-ydpi="75"><path
         d="M 0,0 -10.245,-12.431"
         style="fill:#fcf8d1;fill-opacity:1;fill-rule:nonzero;stroke:none"
         id="path3806" /></g><g
       id="g3812"
       transform="matrix(26.666666,0,0,-26.666666,8141.7722,1904.668)"
       style="fill:#000000"
       inkscape:export-xdpi="75"
       inkscape:export-ydpi="75"><path
         d="M 0,0 C -0.659,0 -1.321,0.22 -1.868,0.671 -3.122,1.704 -3.3,3.557 -2.268,4.81 L 7.977,17.239 c 1.033,1.254 2.885,1.432 4.138,0.4 1.253,-1.034 1.432,-2.886 0.4,-4.139 L 2.271,1.07 C 1.688,0.364 0.848,0 0,0"
         style="fill:#000000;fill-opacity:1;fill-rule:nonzero;stroke:none"
         id="path3810" /></g><g
       id="g3816"
       transform="matrix(26.666666,0,0,-26.666666,12620.732,1166.8173)"
       inkscape:export-xdpi="75"
       inkscape:export-ydpi="75"><path
         d="M 0,0 -20.745,-24.73"
         style="fill:#fcf8d1;fill-opacity:1;fill-rule:nonzero;stroke:none"
         id="path3814" /></g><g
       id="g3820"
       transform="matrix(26.666666,0,0,-26.666666,12067.476,1904.668)"
       style="fill:#000000"
       inkscape:export-xdpi="75"
       inkscape:export-ydpi="75"><path
         d="M 0,0 C -0.666,0 -1.337,0.226 -1.888,0.687 -3.132,1.731 -3.294,3.585 -2.251,4.83 l 20.745,24.729 c 1.044,1.243 2.897,1.407 4.143,0.363 1.243,-1.044 1.406,-2.898 0.362,-4.143 L 2.255,1.05 C 1.673,0.357 0.84,0 0,0"
         style="fill:#000000;fill-opacity:1;fill-rule:nonzero;stroke:none"
         id="path3818" /></g><g
       id="g3824"
       transform="matrix(26.666666,0,0,-26.666666,16227.788,1546.908)"
       inkscape:export-xdpi="75"
       inkscape:export-ydpi="75"><path
         d="M 0,0 -8.797,-10.477"
         style="fill:#fcf8d1;fill-opacity:1;fill-rule:nonzero;stroke:none"
         id="path3822" /></g><g
       id="g3828"
       transform="matrix(26.666666,0,0,-26.666666,15993.153,1904.668)"
       style="fill:#000000"
       inkscape:export-xdpi="75"
       inkscape:export-ydpi="75"><path
         d="m 0,0 c -0.667,0 -1.338,0.226 -1.889,0.688 -1.243,1.044 -1.404,2.899 -0.36,4.142 l 8.796,10.477 c 1.045,1.243 2.899,1.406 4.141,0.361 1.245,-1.044 1.406,-2.898 0.362,-4.142 L 2.254,1.05 C 1.672,0.357 0.839,0 0,0"
         style="fill:#000000;fill-opacity:1;fill-rule:nonzero;stroke:none"
         id="path3826" /></g><g
       id="g4116"
       transform="matrix(26.666666,0,0,-26.666666,7263.7776,140.63336)"
       style="fill:#ffffff"
       inkscape:export-xdpi="75"
       inkscape:export-ydpi="75"><path
         d="m 0,0 c -3.411,2.862 -8.495,2.417 -11.356,-0.994 l -0.003,0.003 -23.899,-28.481 c -2.802,2.353 -6.414,3.772 -10.359,3.772 -4.958,0 -9.392,-2.239 -12.349,-5.76 l -0.007,0.005 -6.203,-7.392 c 2.782,3.41 2.322,8.43 -1.06,11.268 -3.41,2.861 -8.495,2.416 -11.357,-0.994 -0.009,-0.01 -0.015,-0.021 -0.024,-0.031 l -8.668,-10.332 c 2.861,3.411 2.416,8.495 -0.994,11.357 -3.41,2.861 -8.494,2.416 -11.357,-0.994 l -0.002,0.002 -19.058,-22.713 c -0.012,0.009 -0.024,0.017 -0.035,0.027 1.918,2.653 3.052,5.91 3.052,9.435 0,8.904 -7.217,16.122 -16.122,16.122 -4.958,0 -9.39,-2.239 -12.348,-5.76 l -0.004,0.003 -16.637,-19.826 c -0.011,0.009 -0.022,0.017 -0.034,0.027 1.919,2.652 3.053,5.909 3.053,9.434 0,8.904 -7.217,16.122 -16.121,16.122 -4.941,0 -9.359,-2.224 -12.316,-5.722 l 5.729,6.827 c 5.723,6.82 4.833,16.989 -1.988,22.712 -3.032,2.545 -6.726,3.779 -10.397,3.769 h -3.717 V 1.883 c -2.298,-0.001 -4.581,-0.978 -6.174,-2.877 -0.337,-0.401 -1.937,-2.296 -2.424,-2.876 l -0.003,0.002 -39.794,-47.424 c -0.024,0.02 -0.048,0.037 -0.072,0.057 2.08,3.351 1.444,7.804 -1.664,10.413 -3.411,2.862 -8.496,2.417 -11.357,-0.993 l -9.226,-10.996 0.011,-0.01 c -0.136,-0.151 -0.273,-0.301 -0.404,-0.458 -5.724,-6.821 -4.834,-16.99 1.987,-22.713 3.022,-2.536 6.703,-3.772 10.363,-3.77 v -0.004 h 21.045 v 0.004 c 3.78,0.002 7.537,1.326 10.525,3.908 0.053,-0.045 0.103,-0.094 0.158,-0.139 6.145,-5.157 15.008,-4.943 20.889,0.139 0.053,-0.045 0.103,-0.093 0.157,-0.138 6.147,-5.158 15.014,-4.943 20.895,0.144 0.053,-0.045 0.103,-0.092 0.156,-0.137 6.821,-5.724 16.99,-4.834 22.713,1.987 0.002,0.002 0.004,0.005 0.006,0.007 l 16.632,19.821 c 0.012,-0.011 0.023,-0.021 0.036,-0.032 -4.91,-6.787 -3.813,-16.315 2.705,-21.783 6.818,-5.722 16.983,-4.834 22.708,1.981 l 10e-4,-10e-4 17.351,20.677 c -5.679,-6.82 -4.78,-16.954 2.025,-22.664 6.146,-5.156 15.008,-4.943 20.889,0.139 0.053,-0.045 0.103,-0.094 0.158,-0.139 6.145,-5.156 15.007,-4.943 20.888,0.138 0.053,-0.045 0.103,-0.093 0.157,-0.138 6.82,-5.723 16.989,-4.833 22.713,1.987 0.019,0.024 0.037,0.047 0.056,0.07 l 18.219,21.714 c 0.014,0.015 0.027,0.028 0.04,0.043 2.862,3.41 2.417,8.494 -0.993,11.356 -3.41,2.862 -8.495,2.417 -11.356,-0.993 -0.002,-0.002 -0.003,-0.004 -0.005,-0.006 l -7.948,-9.472 -10e-4,10e-4 c -0.001,0.001 -0.002,0.002 -0.003,0.003 l 33.424,39.834 c 0.03,0.035 0.062,0.064 0.091,0.099 C 3.854,-7.946 3.41,-2.861 0,0"
         style="fill:#ffffff;fill-opacity:1;fill-rule:nonzero;stroke:none"
         id="path4114" /></g><g
       id="g4120"
       transform="matrix(26.666666,0,0,-26.666666,3028.4657,1507.4547)"
       style="fill:#000000"
       inkscape:export-xdpi="75"
       inkscape:export-ydpi="75"><path
         d="m 0,0 h 0.006 z m 42.093,-0.001 h 0.006 z m 106.734,-2.847 -0.013,-0.015 c 0.005,0.006 0.009,0.01 0.013,0.015 m -211.771,-18.81 c 0.679,0 1.359,-0.235 1.909,-0.704 l 0.13,-0.115 c 4.99,-4.188 12.173,-4.141 17.086,0.104 1.104,0.955 2.741,0.953 3.845,-10e-4 l 0.109,-0.096 c 4.999,-4.197 12.183,-4.147 17.097,0.102 1.106,0.957 2.748,0.955 3.852,-0.004 l 0.105,-0.094 c 2.709,-2.274 6.123,-3.353 9.634,-3.045 3.507,0.306 6.683,1.959 8.947,4.655 0.002,0.003 0.005,0.006 0.008,0.01 L 16.41,-1.024 c 1.043,1.243 2.896,1.405 4.139,0.364 0.018,-0.016 0.048,-0.041 0.071,-0.061 1.152,-0.995 1.356,-2.711 0.46,-3.948 -4.026,-5.566 -3.055,-13.389 2.213,-17.809 5.565,-4.669 13.894,-3.942 18.566,1.621 0.023,0.026 0.045,0.052 0.069,0.078 l 17.283,20.596 c 1.042,1.244 2.893,1.407 4.138,0.367 1.244,-1.04 1.411,-2.891 0.373,-4.137 -4.633,-5.565 -3.89,-13.877 1.656,-18.531 4.982,-4.18 12.164,-4.134 17.077,0.112 1.105,0.954 2.741,0.953 3.846,-0.001 l 0.108,-0.097 c 4.998,-4.194 12.179,-4.149 17.092,0.097 1.1,0.949 2.728,0.954 3.831,0.011 l 0.13,-0.115 c 2.705,-2.27 6.124,-3.349 9.63,-3.041 3.496,0.306 6.664,1.95 8.926,4.631 0.026,0.033 0.051,0.066 0.077,0.096 l 18.221,21.715 c 0.027,0.031 0.059,0.068 0.091,0.103 0.836,1.011 1.246,2.327 1.128,3.678 -0.119,1.363 -0.762,2.598 -1.809,3.477 -1.048,0.879 -2.376,1.297 -3.739,1.178 -1.351,-0.118 -2.577,-0.751 -3.454,-1.784 l -0.02,-0.023 -7.954,-9.48 c -1.003,-1.196 -2.767,-1.398 -4.016,-0.462 -0.024,0.018 -0.055,0.041 -0.078,0.06 -0.618,0.495 -1.011,1.218 -1.089,2.006 -0.078,0.787 0.164,1.573 0.674,2.179 l 33.425,39.835 c 0.051,0.06 0.093,0.108 0.134,0.151 0.849,1.037 1.252,2.345 1.135,3.685 -0.119,1.363 -0.763,2.598 -1.809,3.476 0,10e-4 0,10e-4 -0.001,10e-4 -1.048,0.879 -2.377,1.299 -3.738,1.178 -1.362,-0.119 -2.597,-0.762 -3.476,-1.809 -0.032,-0.037 -0.063,-0.073 -0.095,-0.108 L 125.818,19.894 c -0.501,-0.597 -1.218,-0.971 -1.996,-1.039 -0.773,-0.068 -1.549,0.176 -2.146,0.678 -2.367,1.988 -5.375,3.083 -8.469,3.083 -3.902,0 -7.582,-1.717 -10.098,-4.711 -0.049,-0.06 -0.101,-0.116 -0.154,-0.171 L 96.9,10.52 c -1.038,-1.238 -2.881,-1.405 -4.126,-0.375 -1.245,1.03 -1.424,2.872 -0.403,4.123 1.76,2.158 1.458,5.368 -0.673,7.156 -2.149,1.804 -5.356,1.536 -7.178,-0.588 -0.019,-0.024 -0.037,-0.046 -0.054,-0.067 l -8.66,-10.321 -0.015,-0.017 c -1.044,-1.244 -2.898,-1.407 -4.143,-0.363 -1.243,1.043 -1.405,2.898 -0.362,4.142 l 0.005,0.005 c 0.876,1.047 1.293,2.372 1.174,3.733 -0.119,1.363 -0.762,2.597 -1.81,3.476 -2.163,1.815 -5.399,1.533 -7.215,-0.631 -0.027,-0.033 -0.056,-0.066 -0.086,-0.098 L 44.38,-1.918 c -1.026,-1.224 -2.842,-1.404 -4.089,-0.406 -0.022,0.018 -0.08,0.064 -0.103,0.083 -1.168,0.994 -1.376,2.72 -0.477,3.964 1.632,2.256 2.495,4.923 2.495,7.712 0,7.268 -5.914,13.181 -13.183,13.181 -3.901,0 -7.582,-1.717 -10.096,-4.711 -0.039,-0.047 -0.079,-0.091 -0.12,-0.134 L 2.287,-1.917 c -1.027,-1.225 -2.842,-1.401 -4.086,-0.408 -0.021,0.016 -0.05,0.039 -0.065,0.052 -1.202,0.986 -1.429,2.737 -0.518,3.996 1.633,2.257 2.496,4.923 2.496,7.712 0,7.268 -5.913,13.181 -13.182,13.181 -3.886,0 -7.557,-1.706 -10.07,-4.68 -1.047,-1.239 -2.899,-1.396 -4.14,-0.352 -1.24,1.045 -1.401,2.897 -0.358,4.139 l 5.729,6.827 c 4.672,5.568 3.943,13.899 -1.625,18.571 -2.378,1.995 -5.385,3.106 -8.501,3.081 h -3.586 c -0.045,-0.002 -0.09,-0.003 -0.135,-0.003 -1.521,-10e-4 -2.952,-0.666 -3.925,-1.826 l -2.424,-2.877 c -0.03,-0.036 -0.061,-0.071 -0.092,-0.105 L -81.899,-1.926 c -0.504,-0.601 -1.227,-0.975 -2.009,-1.04 -0.764,-0.065 -1.522,0.173 -2.112,0.66 l -0.067,0.052 c -1.141,0.936 -1.413,2.571 -0.635,3.824 1.332,2.147 0.878,4.989 -1.056,6.612 -1.048,0.879 -2.375,1.297 -3.738,1.178 -1.363,-0.119 -2.597,-0.761 -3.477,-1.809 L -104.03,-3.22 c -0.074,-0.11 -0.157,-0.216 -0.247,-0.315 -0.133,-0.148 -0.237,-0.262 -0.337,-0.38 -4.67,-5.566 -3.941,-13.897 1.627,-18.569 2.368,-1.988 5.374,-3.081 8.465,-3.081 h 0.008 c 0.047,0 0.095,-0.002 0.142,-0.004 h 20.76 c 0.047,0.002 0.094,0.004 0.141,0.004 3.168,0.001 6.224,1.135 8.605,3.192 0.552,0.477 1.237,0.715 1.922,0.715 m 10.527,-9.819 c -3.666,0 -7.333,1.063 -10.532,3.194 -3.055,-2.022 -6.654,-3.129 -10.362,-3.162 -0.052,-0.003 -0.105,-0.004 -0.158,-0.004 h -21.045 c -0.052,0 -0.104,0.001 -0.155,0.004 -4.42,0.034 -8.71,1.613 -12.098,4.457 -8.051,6.756 -9.105,18.802 -2.35,26.854 0.09,0.108 0.181,0.21 0.272,0.313 0.038,0.052 0.079,0.105 0.122,0.155 l 9.226,10.996 c 1.889,2.251 4.541,3.632 7.468,3.888 2.93,0.257 5.779,-0.643 8.03,-2.532 1.405,-1.178 2.446,-2.655 3.1,-4.273 l 34.289,40.865 c 0.032,0.037 0.064,0.074 0.097,0.11 l 2.33,2.765 c 2.058,2.452 5.063,3.877 8.266,3.925 0.053,0.003 0.106,0.004 0.161,0.004 h 3.716 0.05 c 4.464,0 8.81,-1.581 12.238,-4.457 6.913,-5.801 8.667,-15.503 4.748,-23.227 0.64,0.065 1.286,0.098 1.936,0.098 9.807,0 17.91,-7.446 18.949,-16.981 l 8.538,10.174 c 0.043,0.051 0.087,0.101 0.133,0.148 3.631,4.235 8.894,6.659 14.471,6.659 9.81,0 17.912,-7.447 18.95,-16.984 l 10.962,13.063 c 0.032,0.039 0.066,0.077 0.101,0.114 3.915,4.54 10.79,5.106 15.399,1.24 1.389,-1.166 2.447,-2.623 3.114,-4.256 l 2.364,2.818 c 0.021,0.027 0.041,0.052 0.06,0.074 3.906,4.655 10.859,5.263 15.505,1.364 1.411,-1.184 2.448,-2.657 3.098,-4.264 l 0.024,0.026 c 0.054,0.065 0.111,0.128 0.17,0.187 3.63,4.209 8.877,6.618 14.437,6.618 3.484,0 6.895,-0.961 9.851,-2.745 l 22.155,26.403 c 0.035,0.043 0.072,0.084 0.11,0.124 1.881,2.177 4.489,3.511 7.361,3.762 2.926,0.257 5.779,-0.644 8.03,-2.532 2.251,-1.889 3.632,-4.541 3.888,-7.468 0.255,-2.928 -0.644,-5.779 -2.533,-8.03 -0.048,-0.058 -0.095,-0.111 -0.144,-0.162 L 142.767,15.015 c 1.726,-0.372 3.346,-1.161 4.738,-2.329 4.646,-3.899 5.255,-10.851 1.356,-15.499 -0.025,-0.029 -0.055,-0.064 -0.087,-0.097 l -18.147,-21.627 c -0.031,-0.04 -0.063,-0.079 -0.094,-0.116 -3.261,-3.886 -7.856,-6.279 -12.929,-6.722 -4.346,-0.383 -8.599,0.71 -12.181,3.09 -6.374,-4.25 -14.646,-4.258 -21.047,0 -6.966,-4.644 -16.198,-4.223 -22.777,1.297 -3.911,3.28 -6.169,7.819 -6.682,12.541 l -8.553,-10.192 c -0.024,-0.03 -0.05,-0.058 -0.076,-0.088 -6.769,-7.964 -18.756,-8.983 -26.774,-2.254 -3.891,3.263 -6.16,7.811 -6.675,12.553 L 4.285,-24.622 c -0.005,-0.006 -0.01,-0.011 -0.014,-0.017 -3.272,-3.896 -7.866,-6.287 -12.935,-6.73 -4.347,-0.381 -8.598,0.71 -12.18,3.09 -6.375,-4.256 -14.65,-4.268 -21.053,-0.006 -3.189,-2.127 -6.853,-3.192 -10.52,-3.192"
         style="fill:#000000;fill-opacity:1;fill-rule:nonzero;stroke:none"
         id="path4118" /></g><g
       id="g4124"
       transform="matrix(26.666666,0,0,-26.666666,508.08707,2267.5586)"
       inkscape:export-xdpi="75"
       inkscape:export-ydpi="75"><path
         d="M 0,0 21.045,0.002"
         style="fill:#fcf8d1;fill-opacity:1;fill-rule:nonzero;stroke:none"
         id="path4122" /></g><g
       id="g4128"
       transform="matrix(26.666666,0,0,-26.666666,508.08707,2345.972)"
       style="fill:#000000"
       inkscape:export-xdpi="75"
       inkscape:export-ydpi="75"><path
         d="m 0,0 c -1.624,0 -2.94,1.316 -2.94,2.939 0,1.624 1.315,2.941 2.94,2.941 l 21.045,0.003 c 1.623,0 2.94,-1.317 2.94,-2.94 0,-1.624 -1.316,-2.94 -2.94,-2.94 z"
         style="fill:#000000;fill-opacity:1;fill-rule:nonzero;stroke:none"
         id="path4126" /></g><g
       id="g4132"
       transform="matrix(26.666666,0,0,-26.666666,518.56967,1825.268)"
       inkscape:export-xdpi="75"
       inkscape:export-ydpi="75"><path
         d="M 0,0 17.922,21.358"
         style="fill:#fcf8d1;fill-opacity:1;fill-rule:nonzero;stroke:none"
         id="path4130" /></g><g
       id="g4136"
       transform="matrix(26.666666,0,0,-26.666666,518.52967,1903.6547)"
       style="fill:#000000"
       inkscape:export-xdpi="75"
       inkscape:export-ydpi="75"><path
         d="m 0,0 c -0.667,0 -1.338,0.226 -1.889,0.687 -1.243,1.044 -1.405,2.899 -0.362,4.142 l 17.922,21.358 c 1.043,1.245 2.898,1.407 4.142,0.363 1.244,-1.044 1.406,-2.898 0.362,-4.142 L 2.253,1.05 C 1.672,0.356 0.839,0 0,0"
         style="fill:#000000;fill-opacity:1;fill-rule:nonzero;stroke:none"
         id="path4134" /></g><g
       id="g4140"
       transform="matrix(26.666666,0,0,-26.666666,2752.9323,1837.7933)"
       inkscape:export-xdpi="75"
       inkscape:export-ydpi="75"><path
         d="M 0,0 26.874,32.025"
         style="fill:#fcf8d1;fill-opacity:1;fill-rule:nonzero;stroke:none"
         id="path4138" /></g><g
       id="g4144"
       transform="matrix(26.666666,0,0,-26.666666,2752.8923,1916.18)"
       style="fill:#000000"
       inkscape:export-xdpi="75"
       inkscape:export-ydpi="75"><path
         d="m 0,0 c -0.667,0 -1.338,0.226 -1.889,0.687 -1.243,1.044 -1.405,2.899 -0.362,4.142 l 26.874,32.025 c 1.043,1.245 2.898,1.407 4.142,0.363 1.244,-1.044 1.406,-2.898 0.362,-4.142 L 2.253,1.05 C 1.672,0.356 0.839,0 0,0"
         style="fill:#000000;fill-opacity:1;fill-rule:nonzero;stroke:none"
         id="path4142" /></g><g
       id="g4148"
       transform="matrix(26.666666,0,0,-26.666666,2191.735,1837.7427)"
       inkscape:export-xdpi="75"
       inkscape:export-ydpi="75"><path
         d="M 0,0 18.31,21.82"
         style="fill:#fcf8d1;fill-opacity:1;fill-rule:nonzero;stroke:none"
         id="path4146" /></g><g
       id="g4152"
       transform="matrix(26.666666,0,0,-26.666666,2191.695,1916.1533)"
       style="fill:#000000"
       inkscape:export-xdpi="75"
       inkscape:export-ydpi="75"><path
         d="M 0,0 C -0.667,0 -1.337,0.226 -1.888,0.687 -3.132,1.731 -3.294,3.586 -2.25,4.83 l 18.309,21.82 c 1.043,1.245 2.898,1.407 4.142,0.362 1.243,-1.043 1.406,-2.898 0.362,-4.142 L 2.253,1.05 C 1.672,0.357 0.839,0 0,0"
         style="fill:#000000;fill-opacity:1;fill-rule:nonzero;stroke:none"
         id="path4150" /></g><g
       id="g4156"
       transform="matrix(26.666666,0,0,-26.666666,3082.4497,2113.9133)"
       inkscape:export-xdpi="75"
       inkscape:export-ydpi="75"><path
         d="M 0,0 26.999,32.177"
         style="fill:#fcf8d1;fill-opacity:1;fill-rule:nonzero;stroke:none"
         id="path4154" /></g><g
       id="g4160"
       transform="matrix(26.666666,0,0,-26.666666,3082.423,2192.324)"
       style="fill:#000000"
       inkscape:export-xdpi="75"
       inkscape:export-ydpi="75"><path
         d="M 0,0 C -0.667,0 -1.338,0.226 -1.889,0.688 -3.133,1.731 -3.295,3.586 -2.251,4.83 l 26.999,32.177 c 1.043,1.244 2.898,1.406 4.142,0.362 1.244,-1.044 1.406,-2.898 0.362,-4.142 L 2.253,1.051 C 1.672,0.357 0.839,0 0,0"
         style="fill:#000000;fill-opacity:1;fill-rule:nonzero;stroke:none"
         id="path4158" /></g><g
       id="g4164"
       transform="matrix(26.666666,0,0,-26.666666,5965.0789,685.00668)"
       inkscape:export-xdpi="75"
       inkscape:export-ydpi="75"><path
         d="m 0,0 c -2.862,-3.411 -7.946,-3.855 -11.356,-0.994 -3.412,2.862 -3.856,7.946 -0.995,11.357 2.862,3.41 7.947,3.855 11.357,0.993 C 2.416,8.495 2.861,3.41 0,0"
         style="fill:#ff0000;fill-opacity:1;fill-rule:nonzero;stroke:none"
         id="path4162" /></g><g
       id="g4168"
       transform="matrix(26.666666,0,0,-26.666666,5800.6523,410.26802)"
       style="fill:#000000"
       inkscape:export-xdpi="75"
       inkscape:export-ydpi="75"><path
         d="M 0,0 C -0.151,0 -0.303,-0.007 -0.456,-0.021 -1.818,-0.14 -3.053,-0.782 -3.933,-1.83 -4.812,-2.878 -5.229,-4.205 -5.11,-5.568 c 0.119,-1.363 0.761,-2.597 1.809,-3.476 1.048,-0.88 2.375,-1.301 3.738,-1.179 1.363,0.119 2.597,0.762 3.476,1.81 0.88,1.048 1.298,2.375 1.179,3.738 C 4.973,-3.313 4.33,-2.078 3.282,-1.199 2.352,-0.417 1.2,0 0,0 m -0.019,-16.118 c -2.496,0 -5.004,0.843 -7.062,2.569 -4.647,3.899 -5.255,10.852 -1.356,15.499 3.9,4.647 10.852,5.255 15.499,1.356 4.647,-3.899 5.254,-10.852 1.356,-15.498 -2.173,-2.59 -5.295,-3.926 -8.437,-3.926"
         style="fill:#000000;fill-opacity:1;fill-rule:nonzero;stroke:none"
         id="path4166" /></g><g
       id="g4172"
       transform="matrix(26.666666,0,0,-26.666666,4997.815,1837.7427)"
       inkscape:export-xdpi="75"
       inkscape:export-ydpi="75"><path
         d="M 0,0 26.957,32.125"
         style="fill:#fcf8d1;fill-opacity:1;fill-rule:nonzero;stroke:none"
         id="path4170" /></g><g
       id="g4176"
       transform="matrix(26.666666,0,0,-26.666666,4997.7883,1916.1533)"
       style="fill:#000000"
       inkscape:export-xdpi="75"
       inkscape:export-ydpi="75"><path
         d="M 0,0 C -0.667,0 -1.338,0.226 -1.889,0.687 -3.132,1.731 -3.295,3.586 -2.251,4.83 l 26.957,32.125 c 1.043,1.244 2.898,1.406 4.142,0.362 1.244,-1.043 1.406,-2.898 0.362,-4.142 L 2.254,1.05 C 1.672,0.357 0.839,0 0,0"
         style="fill:#000000;fill-opacity:1;fill-rule:nonzero;stroke:none"
         id="path4174" /></g><g
       id="g4180"
       transform="matrix(26.666666,0,0,-26.666666,3875.3937,1837.7933)"
       inkscape:export-xdpi="75"
       inkscape:export-ydpi="75"><path
         d="M 0,0 18.315,21.828"
         style="fill:#fcf8d1;fill-opacity:1;fill-rule:nonzero;stroke:none"
         id="path4178" /></g><g
       id="g4184"
       transform="matrix(26.666666,0,0,-26.666666,3875.3403,1916.18)"
       style="fill:#000000"
       inkscape:export-xdpi="75"
       inkscape:export-ydpi="75"><path
         d="M 0,0 C -0.667,0 -1.337,0.226 -1.888,0.687 -3.132,1.731 -3.294,3.586 -2.25,4.829 l 18.315,21.828 c 1.043,1.245 2.898,1.407 4.142,0.363 1.244,-1.043 1.406,-2.898 0.362,-4.142 L 2.254,1.05 C 1.673,0.356 0.84,0 0,0"
         style="fill:#000000;fill-opacity:1;fill-rule:nonzero;stroke:none"
         id="path4182" /></g><g
       id="g4188"
       transform="matrix(26.666666,0,0,-26.666666,5559.0656,1837.7427)"
       inkscape:export-xdpi="75"
       inkscape:export-ydpi="75"><path
         d="M 0,0 18.31,21.82"
         style="fill:#fcf8d1;fill-opacity:1;fill-rule:nonzero;stroke:none"
         id="path4186" /></g><g
       id="g4192"
       transform="matrix(26.666666,0,0,-26.666666,5559.0389,1916.1533)"
       style="fill:#000000"
       inkscape:export-xdpi="75"
       inkscape:export-ydpi="75"><path
         d="M 0,0 C -0.667,0 -1.338,0.226 -1.889,0.687 -3.133,1.731 -3.295,3.586 -2.251,4.83 l 18.31,21.82 c 1.043,1.245 2.897,1.407 4.141,0.362 1.244,-1.043 1.406,-2.898 0.362,-4.142 L 2.253,1.05 C 1.672,0.357 0.839,0 0,0"
         style="fill:#000000;fill-opacity:1;fill-rule:nonzero;stroke:none"
         id="path4190" /></g><g
       id="g4196"
       transform="matrix(26.666666,0,0,-26.666666,6120.2896,1837.7667)"
       inkscape:export-xdpi="75"
       inkscape:export-ydpi="75"><path
         d="M 0,0 23.148,27.586"
         style="fill:#fcf8d1;fill-opacity:1;fill-rule:nonzero;stroke:none"
         id="path4194" /></g><g
       id="g4200"
       transform="matrix(26.666666,0,0,-26.666666,6120.2363,1916.1533)"
       style="fill:#000000"
       inkscape:export-xdpi="75"
       inkscape:export-ydpi="75"><path
         d="M 0,0 C -0.667,0 -1.337,0.226 -1.888,0.687 -3.132,1.731 -3.294,3.586 -2.25,4.83 l 23.148,27.586 c 1.043,1.245 2.898,1.406 4.142,0.362 1.244,-1.044 1.406,-2.898 0.362,-4.142 L 2.254,1.05 C 1.673,0.357 0.839,0 0,0"
         style="fill:#000000;fill-opacity:1;fill-rule:nonzero;stroke:none"
         id="path4198" /></g><g
       id="g4204"
       transform="matrix(26.666666,0,0,-26.666666,2504.3244,796.50534)"
       inkscape:export-xdpi="75"
       inkscape:export-ydpi="75"><path
         d="M 0,0 -33.082,-39.421"
         style="fill:#fcf8d1;fill-opacity:1;fill-rule:nonzero;stroke:none"
         id="path4202" /></g><g
       id="g4208"
       transform="matrix(26.666666,0,0,-26.666666,1622.111,1926.1533)"
       style="fill:#000000"
       inkscape:export-xdpi="75"
       inkscape:export-ydpi="75"><path
         d="M 0,0 C -0.667,0 -1.338,0.226 -1.888,0.687 -3.132,1.731 -3.294,3.586 -2.251,4.83 l 33.082,39.421 c 1.044,1.245 2.898,1.407 4.142,0.363 1.244,-1.044 1.406,-2.898 0.362,-4.142 L 2.253,1.05 C 1.672,0.357 0.839,0 0,0"
         style="fill:#000000;fill-opacity:1;fill-rule:nonzero;stroke:none"
         id="path4206" /></g><g
       id="g4212"
       transform="matrix(26.666666,0,0,-26.666666,4693.1536,1532.0387)"
       inkscape:export-xdpi="75"
       inkscape:export-ydpi="75"><path
         d="M 0,0 -18.31,-21.82"
         style="fill:#fcf8d1;fill-opacity:1;fill-rule:nonzero;stroke:none"
         id="path4210" /></g><g
       id="g4216"
       transform="matrix(26.666666,0,0,-26.666666,4204.847,2192.324)"
       style="fill:#000000"
       inkscape:export-xdpi="75"
       inkscape:export-ydpi="75"><path
         d="M 0,0 C -0.667,0 -1.337,0.226 -1.888,0.688 -3.132,1.732 -3.294,3.586 -2.25,4.83 l 18.309,21.819 c 1.044,1.246 2.898,1.408 4.142,0.364 1.243,-1.044 1.405,-2.899 0.362,-4.143 L 2.254,1.051 C 1.673,0.357 0.839,0 0,0"
         style="fill:#000000;fill-opacity:1;fill-rule:nonzero;stroke:none"
         id="path4214" /></g><g
       id="g4220"
       transform="matrix(26.666666,0,0,-26.666666,2174.9884,520.08668)"
       inkscape:export-xdpi="75"
       inkscape:export-ydpi="75"><path
         d="M 0,0 -41.463,-49.413"
         style="fill:#fcf8d1;fill-opacity:1;fill-rule:nonzero;stroke:none"
         id="path4218" /></g><g
       id="g4224"
       transform="matrix(26.666666,0,0,-26.666666,1069.2604,1916.1533)"
       style="fill:#000000"
       inkscape:export-xdpi="75"
       inkscape:export-ydpi="75"><path
         d="M 0,0 C -0.667,0 -1.338,0.226 -1.889,0.687 -3.132,1.731 -3.294,3.586 -2.251,4.83 l 41.464,49.413 c 1.043,1.244 2.898,1.406 4.141,0.362 1.245,-1.044 1.407,-2.898 0.363,-4.142 L 2.253,1.05 C 1.672,0.357 0.839,0 0,0"
         style="fill:#000000;fill-opacity:1;fill-rule:nonzero;stroke:none"
         id="path4222" /></g><g
       id="g4228"
       transform="matrix(26.666666,0,0,-26.666666,5221.303,902.57201)"
       inkscape:export-xdpi="75"
       inkscape:export-ydpi="75"><path
         d="M 0,0 -11.116,-13.25"
         style="fill:#fcf8d1;fill-opacity:1;fill-rule:nonzero;stroke:none"
         id="path4226" /></g><g
       id="g4232"
       transform="matrix(26.666666,0,0,-26.666666,4924.847,1334.2787)"
       style="fill:#000000"
       inkscape:export-xdpi="75"
       inkscape:export-ydpi="75"><path
         d="M 0,0 C -0.667,0 -1.338,0.226 -1.889,0.687 -3.133,1.731 -3.295,3.586 -2.251,4.83 L 8.865,18.079 c 1.044,1.244 2.898,1.406 4.142,0.362 1.244,-1.043 1.406,-2.898 0.362,-4.142 L 2.254,1.05 C 1.672,0.357 0.839,0 0,0"
         style="fill:#000000;fill-opacity:1;fill-rule:nonzero;stroke:none"
         id="path4230" /></g><g
       id="g4236"
       transform="matrix(26.666666,0,0,-26.666666,4660.159,902.57201)"
       inkscape:export-xdpi="75"
       inkscape:export-ydpi="75"><path
         d="M 0,0 -11.119,-13.25"
         style="fill:#fcf8d1;fill-opacity:1;fill-rule:nonzero;stroke:none"
         id="path4234" /></g><g
       id="g4244"
       transform="matrix(26.666666,0,0,-26.666666,6938.0229,1532.0387)"
       inkscape:export-xdpi="75"
       inkscape:export-ydpi="75"><path
         d="M 0,0 -18.315,-21.827"
         style="fill:#fcf8d1;fill-opacity:1;fill-rule:nonzero;stroke:none"
         id="path4242" /></g><g
       id="g4248"
       transform="matrix(26.666666,0,0,-26.666666,6449.5589,2192.508)"
       style="fill:#000000"
       inkscape:export-xdpi="75"
       inkscape:export-ydpi="75"><path
         d="M 0,0 C -0.667,0 -1.337,0.226 -1.888,0.688 -3.132,1.732 -3.294,3.586 -2.25,4.83 l 18.315,21.826 c 1.044,1.245 2.899,1.407 4.143,0.364 1.243,-1.044 1.405,-2.899 0.362,-4.143 L 2.254,1.051 C 1.673,0.357 0.84,0 0,0"
         style="fill:#000000;fill-opacity:1;fill-rule:nonzero;stroke:none"
         id="path4246" /></g><g
       id="g4252"
       transform="matrix(26.666666,0,0,-26.666666,6960.9402,167.12936)"
       inkscape:export-xdpi="75"
       inkscape:export-ydpi="75"><path
         d="M 0,0 -23.896,-28.479"
         style="fill:#fcf8d1;fill-opacity:1;fill-rule:nonzero;stroke:none"
         id="path4250" /></g><g
       id="g4256"
       transform="matrix(26.666666,0,0,-26.666666,6323.6469,1004.956)"
       style="fill:#000000"
       inkscape:export-xdpi="75"
       inkscape:export-ydpi="75"><path
         d="M 0,0 C -0.667,0 -1.337,0.226 -1.888,0.688 -3.132,1.731 -3.294,3.586 -2.25,4.83 l 23.896,28.479 c 1.043,1.244 2.898,1.406 4.142,0.362 1.244,-1.044 1.406,-2.899 0.362,-4.142 L 2.254,1.05 C 1.673,0.357 0.839,0 0,0"
         style="fill:#000000;fill-opacity:1;fill-rule:nonzero;stroke:none"
         id="path4254" /></g><g
       id="g4260"
       transform="matrix(26.666666,0,0,-26.666666,2175.0017,90.241403)"
       inkscape:export-xdpi="75"
       inkscape:export-ydpi="75"><path
         d="M 0,0 -3.751,-0.003"
         style="fill:#fcf8d1;fill-opacity:1;fill-rule:nonzero;stroke:none"
         id="path4258" /></g></g><sodipodi:namedview
     pagecolor="#ffffff"
     bordercolor="#666666"
     borderopacity="1"
     objecttolerance="10"
     gridtolerance="10"
     guidetolerance="10"
     inkscape:pageopacity="0"
     inkscape:pageshadow="2"
     inkscape:window-width="1646"
     inkscape:window-height="709"
     id="namedview177"
     showgrid="false"
     inkscape:zoom="0.051330234"
     inkscape:cx="10365.715"
     inkscape:cy="1073.7886"
     inkscape:window-x="0"
     inkscape:window-y="25"
     inkscape:window-maximized="0"
     inkscape:current-layer="svg10"
     fit-margin-top="0"
     fit-margin-left="0"
     fit-margin-right="0"
     fit-margin-bottom="0"
     inkscape:document-rotation="0" /><metadata
     id="metadata16"><rdf:RDF><cc:Work
         rdf:about=""><dc:format>image/svg+xml</dc:format><dc:type
           rdf:resource="http://purl.org/dc/dcmitype/StillImage" /><dc:title /></cc:Work></rdf:RDF></metadata><defs
     id="defs14" /></svg>
